<svg clip-rule="evenodd" fill-rule="evenodd" stroke-linejoin="round" stroke-miterlimit="2" viewBox="0 0 1095 198" xmlns="http://www.w3.org/2000/svg"><g fill-rule="nonzero" transform="translate(-173.042 -441.5)"><path d="m555.3 635.2h-109.8c-8.3 0-14-6-14-13.7v-163c0-7.7 6.3-13.7 14-13.7h105.5c7.1 0 13.1 5.4 13.1 12.6 0 7.1-6 12.6-13.1 12.6h-92v55.2h52c6.9 0 12.6 5.4 12.6 12.6 0 7.4-5.7 12.6-12.6 12.6h-52v59.6h96.3c7.1 0 13.1 4.9 13.1 12.6 0 7.1-6 12.6-13.1 12.6zm168.5 0h-109.8c-8.3 0-14-6-14-13.7v-163c0-7.7 6.3-13.7 14-13.7h105.5c7.1 0 13.1 5.4 13.1 12.6 0 7.1-6 12.6-13.1 12.6h-92v55.2h52c6.9 0 12.6 5.4 12.6 12.6 0 7.4-5.7 12.6-12.6 12.6h-52v59.6h96.3c7.1 0 13.1 4.9 13.1 12.6 0 7.1-6 12.6-13.1 12.6zm176.6-184.7c2.6-6.3 6.9-8 12-8 6.3 0 13.1 4.3 13.1 12.9 0 1.7-.6 3.4-1.4 5.7l-72.3 168.6c-2 4.9-5.7 7.7-11.7 7.7s-9.7-2.9-11.7-7.7l-72.3-168.6c-.9-2.3-1.4-4-1.4-5.7 0-8.6 6.9-12.9 13.1-12.9 5.1 0 9.4 1.7 12 8l60.3 145.5zm179.3 184.7h-109.8c-8.3 0-14-6-14-13.7v-163c0-7.7 6.3-13.7 14-13.7h105.5c7.1 0 13.1 5.4 13.1 12.6 0 7.1-6 12.6-13.1 12.6h-92v55.2h52c6.9 0 12.6 5.4 12.6 12.6 0 7.4-5.7 12.6-12.6 12.6h-52v59.6h96.3c7.1 0 13.1 4.9 13.1 12.6 0 7.1-6 12.6-13.1 12.6zm114.4 3.4c-25.2 0-50.9-8.3-67.4-21.1-4.3-3.4-7.4-8-7.4-12.9 0-7.1 5.1-11.1 11.7-11.1 3.4 0 6.3 1.4 9.7 3.4 15.7 10 30.3 17.7 53.7 17.7 30.3 0 45.2-12.3 45.2-28.6 0-19.1-16.9-25.1-51.2-35.4-50.9-15.1-66.9-30.9-66.9-57.7 0-34.3 30.3-51.4 73.2-51.4 14.9 0 29.4 2.9 43.2 8 9.7 3.7 23.2 10.6 23.2 19.4 0 6.6-3.7 12.3-11.7 12.3-2 0-4-.6-5.4-1.4-14-8-30-14-48.9-14-28 0-46 8-46 26.6 0 16.9 14 22.9 46.9 33.2 45.7 14.3 71.2 26.6 71.2 59.2-.2 30.4-25.3 53.8-73.1 53.8zm-806.2-20.9-41-65.4c25.7-7.1 39.2-26 39.2-51.4 0-32.9-21.4-56-64.9-56h-55.7c-7.1 0-13.1 5.4-13.1 12.6 0 7.1 6 12.6 13.1 12.6h61.1c21.1 0 32 14 32 30.9s-10.9 30.6-32 30.6h-27.9c-6.3.3-11.4 5.4-11.4 12 0 6.9 5.1 11.7 11.4 12h19.6l45.3 74.3c2.3 4.9 5.7 7.7 12.3 7.7 8.6 0 13.4-6.9 13.4-13.7 0-2.2-.5-4.2-1.4-6.2z" fill="#1b425f"/><path d="m228.5 637.5c-3.8 0-7.5-1.6-10-4.5l-42-46.8c-5-5.5-4.5-14.1 1-19.1s14.1-4.5 19.1 1l27.2 30.3 41.1-108.8c2.6-7 10.4-10.5 17.4-7.9s10.5 10.4 7.9 17.4l-48.9 129.6c-1.7 4.4-5.5 7.6-10.1 8.5-1.1.2-1.9.3-2.7.3z" fill="#287ab8"/></g></svg>