<svg clip-rule="evenodd" fill-rule="evenodd" stroke-linejoin="round" stroke-miterlimit="2" viewBox="0 0 217 193" xmlns="http://www.w3.org/2000/svg"><g fill-rule="nonzero" transform="translate(-611.842 -444.9)"><path d="m826.7 617.7-41-65.4c25.7-7.1 39.2-26 39.2-51.4 0-32.9-21.4-56-64.9-56h-55.7c-7.1 0-13.1 5.4-13.1 12.6 0 7.1 6 12.6 13.1 12.6h61.1c21.1 0 32 14 32 30.9s-10.9 30.6-32 30.6h-27.9c-6.3.3-11.4 5.4-11.4 12 0 6.9 5.1 11.7 11.4 12h19.6l45.3 74.3c2.3 4.9 5.7 7.7 12.3 7.7 8.6 0 13.4-6.9 13.4-13.7.1-2.2-.5-4.2-1.4-6.2z" fill="#1b425f"/><path d="m667.3 637.5c-3.8 0-7.5-1.6-10-4.5l-42-46.8c-5-5.5-4.5-14.1 1-19.1s14.1-4.5 19.1 1l27.2 30.3 41.1-108.8c2.6-7 10.4-10.5 17.4-7.9s10.5 10.4 7.9 17.4l-49 129.7c-1.7 4.4-5.5 7.6-10.1 8.5-.9.1-1.8.2-2.6.2z" fill="#287ab8"/></g></svg>