<svg viewBox="0 0 270 102.86" xmlns="http://www.w3.org/2000/svg"><path d="m65.47 37.59-31.8 31.8h-31.79l31.79-31.8z" fill="#ff8200"/><path d="m200.57 1.84-67.55 67.55h-67.55l67.55-67.55z" fill="#ff8200"/><path d="m54.23 42.25h22.48v22.48h-22.48z" fill="#ff8200" transform="matrix(.70710678 -.70710678 .70710678 .70710678 -18.65 61.96)"/><path d="m200.57 1.84-33.77 33.78 33.77 33.77h67.55z" fill="#ff8200"/><path d="m65.47 37.59h-31.8l15.9 15.9z" fill="#ff5c39"/><path d="m81.37 53.49-15.9 15.9h31.8z" fill="#ff5c39"/><path d="m200.57 1.84h-67.55l33.78 33.78z" fill="#ff5c39"/><g fill="#3e2b2e"><path d="m17.66 101.15v-11.32l-4.1 8.23h-2.34l-4.1-8.23v11.32h-4.37v-18.91h4.74l4.9 9.88 4.93-9.88h4.68v18.91z"/><path d="m30.54 82.24h3.94l6.9 18.91h-4.48l-1.46-4.23h-5.89l-1.44 4.23h-4.47zm4.18 11.67-2.21-6.69-2.27 6.69z"/><path d="m54.71 87.78a2.78 2.78 0 0 0 -.56-.4 11 11 0 0 0 -1.2-.61 11.48 11.48 0 0 0 -1.57-.56 6.23 6.23 0 0 0 -1.7-.24c-1.56 0-2.35.52-2.35 1.57a1.24 1.24 0 0 0 .26.8 2.26 2.26 0 0 0 .74.57 6.61 6.61 0 0 0 1.24.47l1.73.48a22.7 22.7 0 0 1 2.45.81 6.51 6.51 0 0 1 1.85 1.09 4.53 4.53 0 0 1 1.18 1.59 5.55 5.55 0 0 1 .41 2.23 5.62 5.62 0 0 1 -.6 2.71 5.13 5.13 0 0 1 -1.59 1.78 6.75 6.75 0 0 1 -2.27 1 11.49 11.49 0 0 1 -2.64.3 14.27 14.27 0 0 1 -2.09-.17 15.54 15.54 0 0 1 -2.13-.46 19.2 19.2 0 0 1 -2-.73 11.8 11.8 0 0 1 -1.87-1.01l2-3.79a3.62 3.62 0 0 0 .69.51 10.93 10.93 0 0 0 1.46.74 14.93 14.93 0 0 0 1.93.67 8.31 8.31 0 0 0 2.15.29c1.55 0 2.32-.47 2.32-1.41a1.2 1.2 0 0 0 -.34-.88 3.25 3.25 0 0 0 -1-.62 10.45 10.45 0 0 0 -1.46-.51l-1.83-.54a15.13 15.13 0 0 1 -2.26-.86 6 6 0 0 1 -1.59-1.08 3.85 3.85 0 0 1 -.93-1.41 5.35 5.35 0 0 1 -.31-1.87 6 6 0 0 1 .56-2.63 5.67 5.67 0 0 1 1.52-1.93 6.59 6.59 0 0 1 2.22-1.19 8.78 8.78 0 0 1 2.68-.4 9.77 9.77 0 0 1 1.95.19 12.9 12.9 0 0 1 1.83.48 11.68 11.68 0 0 1 1.64.66c.51.25 1 .5 1.4.75z"/><path d="m71 87.78a3.15 3.15 0 0 0 -.56-.4 11 11 0 0 0 -1.2-.61 12 12 0 0 0 -1.57-.56 6.3 6.3 0 0 0 -1.73-.21c-1.56 0-2.34.52-2.34 1.57a1.23 1.23 0 0 0 .25.8 2.31 2.31 0 0 0 .75.57 6.61 6.61 0 0 0 1.24.47l1.73.48a24.27 24.27 0 0 1 2.45.81 6.65 6.65 0 0 1 1.85 1.09 4.39 4.39 0 0 1 1.13 1.56 5.38 5.38 0 0 1 .41 2.23 5.62 5.62 0 0 1 -.6 2.71 4.94 4.94 0 0 1 -1.58 1.78 6.7 6.7 0 0 1 -2.26 1 11.55 11.55 0 0 1 -2.64.3 14.27 14.27 0 0 1 -2.13-.16 14.92 14.92 0 0 1 -2.13-.46 19.2 19.2 0 0 1 -2-.73 11.91 11.91 0 0 1 -1.8-1l1.92-3.81a3.62 3.62 0 0 0 .69.51 10.18 10.18 0 0 0 1.45.74 15.47 15.47 0 0 0 1.93.67 8.33 8.33 0 0 0 2.16.29c1.54 0 2.32-.47 2.32-1.41a1.21 1.21 0 0 0 -.35-.88 3.12 3.12 0 0 0 -1-.62 10 10 0 0 0 -1.39-.51l-1.82-.54a15.28 15.28 0 0 1 -2.27-.86 5.77 5.77 0 0 1 -1.58-1.08 4 4 0 0 1 -.94-1.41 5.35 5.35 0 0 1 -.3-1.87 5.81 5.81 0 0 1 .56-2.63 5.55 5.55 0 0 1 1.52-1.93 6.59 6.59 0 0 1 2.22-1.19 8.74 8.74 0 0 1 2.68-.4 9.74 9.74 0 0 1 1.94.19 13.4 13.4 0 0 1 1.84.48 12.75 12.75 0 0 1 1.64.66c.5.25 1 .5 1.39.75z"/><path d="m82.38 101.15v-18.91h12.83v3.84h-8.47v4.07h7v3.54h-7v7.46z"/><path d="m101.28 82.24h3.94l6.9 18.91h-4.48l-1.46-4.23h-5.89l-1.44 4.23h-4.47zm4.18 11.67-2.21-6.69-2.25 6.69z"/><path d="m113.72 101.15v-18.91h4.37v18.91z"/><path d="m121.78 101.15v-18.91h8.52a5.49 5.49 0 0 1 2.46.56 6.48 6.48 0 0 1 2 1.46 6.88 6.88 0 0 1 1.24 2.06 6.08 6.08 0 0 1 .47 2.31 6.8 6.8 0 0 1 -.83 3.23 5.82 5.82 0 0 1 -1 1.29 5.89 5.89 0 0 1 -1.29 1l4.15 7h-4.92l-3.58-6.1h-2.85v6.1zm4.36-9.91h4a1.63 1.63 0 0 0 1.33-.73 3 3 0 0 0 .56-1.88 2.61 2.61 0 0 0 -.64-1.86 1.88 1.88 0 0 0 -1.38-.69h-3.87z"/><path d="m162.26 82.24v18.91h-4.37v-7.75h-7.54v7.75h-4.35v-18.91h4.36v7.32h7.54v-7.32z"/><path d="m174.18 101.31a8.64 8.64 0 0 1 -3.83-.83 9.38 9.38 0 0 1 -3-2.17 9.92 9.92 0 0 1 -1.91-3.07 9.79 9.79 0 0 1 -.67-3.57 9.5 9.5 0 0 1 .7-3.6 9.7 9.7 0 0 1 2-3 9.43 9.43 0 0 1 3-2.1 9.07 9.07 0 0 1 3.78-.79 8.85 8.85 0 0 1 3.84.83 9.36 9.36 0 0 1 3 2.18 9.82 9.82 0 0 1 1.89 3.09 9.64 9.64 0 0 1 .67 3.52 9.42 9.42 0 0 1 -.71 3.59 9.7 9.7 0 0 1 -2 3 9.6 9.6 0 0 1 -3 2.12 8.92 8.92 0 0 1 -3.76.8zm-4.93-9.59a7.16 7.16 0 0 0 .32 2.12 5.74 5.74 0 0 0 1 1.82 4.63 4.63 0 0 0 1.56 1.28 5 5 0 0 0 4.31 0 4.84 4.84 0 0 0 1.55-1.32 6.11 6.11 0 0 0 .92-1.84 7.39 7.39 0 0 0 .3-2.09 7.21 7.21 0 0 0 -.32-2.12 5.24 5.24 0 0 0 -1-1.81 4.66 4.66 0 0 0 -1.56-1.25 4.59 4.59 0 0 0 -2.11-.47 4.49 4.49 0 0 0 -2.17.5 4.62 4.62 0 0 0 -1.55 1.29 5.32 5.32 0 0 0 -.93 1.82 7.4 7.4 0 0 0 -.32 2.07z"/><path d="m194.17 97.42a3.64 3.64 0 0 0 1.9-.46 3.8 3.8 0 0 0 1.25-1.24 5.53 5.53 0 0 0 .68-1.72 10.69 10.69 0 0 0 .2-2v-9.76h4.36v9.67a13.08 13.08 0 0 1 -.49 3.67 8.37 8.37 0 0 1 -1.52 3 7.09 7.09 0 0 1 -2.61 2 10.08 10.08 0 0 1 -7.63 0 7.1 7.1 0 0 1 -2.59-2.07 8.45 8.45 0 0 1 -1.47-3 13.55 13.55 0 0 1 -.47-3.57v-9.7h4.37v9.67a9.34 9.34 0 0 0 .22 2.08 5.43 5.43 0 0 0 .69 1.75 3.56 3.56 0 0 0 1.24 1.26 3.6 3.6 0 0 0 1.87.42z"/><path d="m217.16 87.78a2.78 2.78 0 0 0 -.56-.4 11 11 0 0 0 -1.2-.61 12 12 0 0 0 -1.57-.56 6.29 6.29 0 0 0 -1.7-.24c-1.57 0-2.35.52-2.35 1.57a1.24 1.24 0 0 0 .26.8 2.16 2.16 0 0 0 .74.57 6.61 6.61 0 0 0 1.24.47l1.73.48a23.46 23.46 0 0 1 2.45.81 6.51 6.51 0 0 1 1.85 1.09 4.39 4.39 0 0 1 1.17 1.59 5.38 5.38 0 0 1 .42 2.23 5.62 5.62 0 0 1 -.6 2.71 5.06 5.06 0 0 1 -1.59 1.78 6.62 6.62 0 0 1 -2.26 1 11.49 11.49 0 0 1 -2.64.3 14.27 14.27 0 0 1 -2.13-.16 14.92 14.92 0 0 1 -2.13-.46 19.2 19.2 0 0 1 -2-.73 11.91 11.91 0 0 1 -1.8-1l1.92-3.81a3.62 3.62 0 0 0 .69.51 10.75 10.75 0 0 0 1.45.74 15.47 15.47 0 0 0 1.93.67 8.38 8.38 0 0 0 2.16.29c1.55 0 2.32-.47 2.32-1.41a1.21 1.21 0 0 0 -.35-.88 3.12 3.12 0 0 0 -1-.62 9.59 9.59 0 0 0 -1.45-.52l-1.82-.54a15.28 15.28 0 0 1 -2.27-.86 6.1 6.1 0 0 1 -1.58-1.08 3.85 3.85 0 0 1 -.93-1.41 5.13 5.13 0 0 1 -.31-1.87 6 6 0 0 1 .56-2.63 5.55 5.55 0 0 1 1.52-1.93 6.59 6.59 0 0 1 2.22-1.19 8.78 8.78 0 0 1 2.68-.4 9.67 9.67 0 0 1 1.94.19 13 13 0 0 1 1.84.48 12.19 12.19 0 0 1 1.64.66c.51.25 1 .5 1.4.75z"/><path d="m222.29 101.15v-18.91h4.37v18.91z"/><path d="m234.71 90.34v10.81h-4.37v-18.91h3.41l8.82 11.11v-11.11h4.37v18.91h-3.52z"/><path d="m263.63 99.29a7.12 7.12 0 0 1 -5 2 8.85 8.85 0 0 1 -3.52-.7 8.74 8.74 0 0 1 -2.89-2 9.4 9.4 0 0 1 -2-3.07 10.57 10.57 0 0 1 -.72-4 9.46 9.46 0 0 1 .72-3.67 9.14 9.14 0 0 1 2-3 9.31 9.31 0 0 1 3-2 9.48 9.48 0 0 1 3.73-.74 9.33 9.33 0 0 1 4.61 1.1 7.2 7.2 0 0 1 3 3l-3.25 2.45a4.69 4.69 0 0 0 -1.85-2 5.15 5.15 0 0 0 -2.63-.7 4.33 4.33 0 0 0 -2 .44 4.43 4.43 0 0 0 -1.53 1.22 5.56 5.56 0 0 0 -1 1.83 7 7 0 0 0 -.34 2.23 6.67 6.67 0 0 0 .37 2.27 5.37 5.37 0 0 0 1 1.79 4.61 4.61 0 0 0 1.67 1.26 4.87 4.87 0 0 0 2 .43 6 6 0 0 0 4.63-2.43v-.59h-3.63v-3.14h7.3v9.88h-3.62z"/></g></svg>